<svg width="62" height="61" viewBox="0 0 62 61" fill="none" xmlns="http://www.w3.org/2000/svg">
<path d="M30.256 30.7442V0.00390625C13.5237 0.134446 0 13.7374 0 30.5002V61.0002H30.5C47.2628 61.0002 60.8658 47.4765 60.9963 30.7442H30.256Z" fill="white"/>
<path d="M36.5078 27.0001H34.1641V15.6251H36.5078V27.0001Z" fill="white"/>
<path d="M41.75 15.6251L44.6719 23.8751L47.5781 15.6251H50.6562V27.0001H48.3047V23.8907L48.5391 18.5235L45.4688 27.0001H43.8594L40.7969 18.5313L41.0312 23.8907V27.0001H38.6875V15.6251H41.75Z" fill="white"/>
<path d="M52.7031 27.0001V15.6251H56.6875C58.0677 15.6251 59.1146 15.8907 59.8281 16.4219C60.5417 16.948 60.8984 17.7214 60.8984 18.7423C60.8984 19.2995 60.7552 19.7917 60.4688 20.2188C60.1823 20.6407 59.7839 20.9506 59.2734 21.1485C59.8568 21.2943 60.3151 21.5886 60.6484 22.0313C60.987 22.474 61.1562 23.0157 61.1562 23.6563C61.1562 24.7501 60.8073 25.5782 60.1094 26.1407C59.4115 26.7032 58.4167 26.9896 57.125 27.0001H52.7031ZM55.0469 22.0469V25.1173H57.0547C57.6068 25.1173 58.0365 24.987 58.3438 24.7266C58.6562 24.461 58.8125 24.0964 58.8125 23.6329C58.8125 22.5912 58.2734 22.0626 57.1953 22.0469H55.0469ZM55.0469 20.3907H56.7812C57.9635 20.3699 58.5547 19.8985 58.5547 18.9766C58.5547 18.461 58.4036 18.0912 58.1016 17.8673C57.8047 17.6381 57.3333 17.5235 56.6875 17.5235H55.0469V20.3907Z" fill="white"/>
</svg>
