<svg width="208" height="208" viewBox="0 0 208 208" fill="none" xmlns="http://www.w3.org/2000/svg">
<circle cx="104" cy="104" r="104" fill="#F5B129"/>
<path d="M103.97 120.741C110.623 120.741 116.016 115.347 116.016 108.694C116.016 102.041 110.623 96.6476 103.97 96.6476C97.3167 96.6476 91.9233 102.041 91.9233 108.694C91.9233 115.347 97.3167 120.741 103.97 120.741Z" fill="white"/>
<path d="M139.395 84.9414H119.49L118.895 80.2969C118.895 77.6434 116.743 75.4922 114.09 75.4922H93.5898C90.9364 75.4922 88.7852 77.6434 88.7852 80.2969L88.1897 84.9414H68.4453C66.6762 84.9414 65.2422 86.2954 65.2422 88.0645V129.385C65.2422 131.154 66.6762 132.668 68.4453 132.668H139.395C141.164 132.668 142.598 131.154 142.598 129.385V88.0645C142.598 86.2954 141.164 84.9414 139.395 84.9414ZM103.935 128.434C93.056 128.434 84.2369 119.615 84.2369 108.736C84.2369 97.8566 93.056 89.0374 103.935 89.0374C114.814 89.0374 123.633 97.8566 123.633 108.736C123.633 119.614 114.814 128.434 103.935 128.434ZM138.914 93.4297H122.098V88.4648H138.914V93.4297Z" fill="white"/>
</svg>
