<svg width="71" height="61" viewBox="0 0 71 61" fill="none" xmlns="http://www.w3.org/2000/svg">
<g clip-path="url(#clip0)">
<path d="M30.256 30.7442V0.00384521C13.5237 0.134385 0 13.7374 0 30.5002V61.0002H30.5C47.2628 61.0002 60.8658 47.4765 60.9963 30.7442H30.256Z" fill="white"/>
</g>
<path d="M36.5078 27H34.1641V15.625H36.5078V27ZM41.75 15.625L44.6719 23.875L47.5781 15.625H50.6562V27H48.3047V23.8906L48.5391 18.5234L45.4688 27H43.8594L40.7969 18.5312L41.0312 23.8906V27H38.6875V15.625H41.75ZM52.7031 27V15.625H56.6875C58.0677 15.625 59.1146 15.8906 59.8281 16.4219C60.5417 16.9479 60.8984 17.7214 60.8984 18.7422C60.8984 19.2995 60.7552 19.7917 60.4688 20.2188C60.1823 20.6406 59.7839 20.9505 59.2734 21.1484C59.8568 21.2943 60.3151 21.5885 60.6484 22.0312C60.987 22.474 61.1562 23.0156 61.1562 23.6562C61.1562 24.75 60.8073 25.5781 60.1094 26.1406C59.4115 26.7031 58.4167 26.9896 57.125 27H52.7031ZM55.0469 22.0469V25.1172H57.0547C57.6068 25.1172 58.0365 24.987 58.3438 24.7266C58.6562 24.4609 58.8125 24.0964 58.8125 23.6328C58.8125 22.5911 58.2734 22.0625 57.1953 22.0469H55.0469ZM55.0469 20.3906H56.7812C57.9635 20.3698 58.5547 19.8984 58.5547 18.9766C58.5547 18.4609 58.4036 18.0911 58.1016 17.8672C57.8047 17.638 57.3333 17.5234 56.6875 17.5234H55.0469V20.3906Z" fill="white"/>
<defs>
<clipPath id="clip0">
<rect width="61" height="61" fill="white"/>
</clipPath>
</defs>
</svg>
