<?xml version="1.0" encoding="utf-8"?>
<!-- Generator: Adobe Illustrator 23.0.1, SVG Export Plug-In . SVG Version: 6.00 Build 0)  -->
<svg version="1.1" id="Layer_1" xmlns="http://www.w3.org/2000/svg" xmlns:xlink="http://www.w3.org/1999/xlink" x="0px" y="0px"
	 viewBox="0 0 512 512" style="enable-background:new 0 0 512 512;" xml:space="preserve">
<style type="text/css">
	.st0{fill:#FFFFFF;}
</style>
<circle class="st0" cx="192" cy="106.7" r="106.7"/>
<path class="st0" d="M246.1,443.7c-11.1-19.2-8.9-42.9,4.3-59.7c-13.2-16.8-15.4-40.5-4.3-59.7l17.3-29.9
	c9.5-16.4,27.2-26.7,46.2-26.7c2.6,0,5.2,0.2,7.7,0.6c0.7-1.7,1.6-3.4,2.5-5.1c-11.5-4.5-24-7.2-37-7.2H101.3
	C45.5,256,0,301.5,0,357.3V432c0,8.8,7.2,16,16,16h232.5L246.1,443.7z"/>
<path class="st0" d="M463,394c0.4-3.3,1-6.6,1-10c0-3.4-0.6-6.7-1-10l19.2-14.5c4.3-3.2,5.5-9.2,2.8-13.8l-17.3-29.9
	c-2.7-4.7-8.4-6.6-13.4-4.5l-22.1,9.3c-5.4-4.1-11.1-7.7-17.5-10.4l-2.9-23.5c-0.7-5.3-5.2-9.3-10.6-9.3h-34.5
	c-5.4,0-9.9,4-10.6,9.3l-2.9,23.5c-6.3,2.6-12.1,6.3-17.5,10.4l-22.1-9.3c-4.9-2.1-10.7-0.2-13.4,4.5L283,345.6
	c-2.7,4.7-1.5,10.6,2.8,13.8L305,374c-0.4,3.3-1,6.6-1,10c0,3.4,0.6,6.7,1,10l-19.2,14.5c-4.3,3.2-5.5,9.2-2.8,13.8l17.3,29.9
	c2.7,4.7,8.4,6.6,13.4,4.5l22.1-9.3c5.4,4.1,11.1,7.7,17.5,10.4l2.9,23.5c0.7,5.3,5.2,9.3,10.6,9.3h34.5c5.4,0,9.9-4,10.6-9.3
	l2.9-23.5c6.3-2.6,12.1-6.3,17.5-10.4l22.1,9.3c4.9,2.1,10.7,0.2,13.4-4.5l17.3-29.9c2.7-4.7,1.5-10.6-2.8-13.8L463,394z M384,426.7
	c-23.6,0-42.7-19.1-42.7-42.7c0-23.6,19.1-42.7,42.7-42.7c23.6,0,42.7,19.1,42.7,42.7C426.7,407.6,407.6,426.7,384,426.7z"/>
</svg>
